{
  "asset": {
    "version": "2.0",
    "generator": "THREE.GLTFExporter r173"
  },
  "scenes": [
    {
      "name": "Scene",
      "nodes": [
        4,
        5
      ]
    }
  ],
  "scene": 0,
  "nodes": [
    {
      "name": "Cube",
      "extras": {
        "name": "Cube"
      },
      "mesh": 0
    },
    {
      "name": "Cube002",
      "extras": {
        "name": "Cube.002"
      },
      "mesh": 1
    },
    {
      "matrix": [
        0.0027910755968808543,
        -0.0000017235573519513991,
        -0.9999961179156278,
        0,
        -0.23174248624114036,
        0.972776952973354,
        -0.0006484929680441454,
        0,
        0.9727731780430995,
        0.23174339358304064,
        0.0027146942399411955,
        0,
        8.753663063049316,
        1.8443148136138916,
        0.23935958743095398,
        1
      ],
      "name": "Camera",
      "extras": {
        "name": "Camera"
      },
      "camera": 0
    },
    {
      "name": "Cube001",
      "extras": {
        "name": "Cube.001"
      },
      "mesh": 2
    },
    {
      "name": "newvergin_5.glb",
      "children": [
        0,
        1,
        2,
        3
      ]
    },
    {
      "name": "AmbientLight"
    }
  ],
  "bufferViews": [
    {
      "buffer": 0,
      "byteOffset": 0,
      "byteLength": 7200,
      "target": 34962,
      "byteStride": 12
    },
    {
      "buffer": 0,
      "byteOffset": 7200,
      "byteLength": 7200,
      "target": 34962,
      "byteStride": 12
    },
    {
      "buffer": 0,
      "byteOffset": 14400,
      "byteLength": 4800,
      "target": 34962,
      "byteStride": 8
    },
    {
      "buffer": 0,
      "byteOffset": 19200,
      "byteLength": 2136,
      "target": 34963
    },
    {
      "buffer": 0,
      "byteOffset": 21336,
      "byteLength": 46080,
      "target": 34962,
      "byteStride": 12
    },
    {
      "buffer": 0,
      "byteOffset": 67416,
      "byteLength": 46080,
      "target": 34962,
      "byteStride": 12
    },
    {
      "buffer": 0,
      "byteOffset": 113496,
      "byteLength": 30720,
      "target": 34962,
      "byteStride": 8
    },
    {
      "buffer": 0,
      "byteOffset": 144216,
      "byteLength": 12192,
      "target": 34963
    },
    {
      "buffer": 0,
      "byteOffset": 156408,
      "byteLength": 46080,
      "target": 34962,
      "byteStride": 12
    },
    {
      "buffer": 0,
      "byteOffset": 202488,
      "byteLength": 46080,
      "target": 34962,
      "byteStride": 12
    },
    {
      "buffer": 0,
      "byteOffset": 248568,
      "byteLength": 30720,
      "target": 34962,
      "byteStride": 8
    },
    {
      "buffer": 0,
      "byteOffset": 279288,
      "byteLength": 12192,
      "target": 34963
    }
  ],
  "buffers": [
    {
      "byteLength": 291480,
      "uri": "data:application/octet-stream;base64,"
    }
  ],
  "accessors": [
    {
      "bufferView": 0,
      "componentType": 5126,
      "count": 600,
      "max": [
        29.734148025512695,
        22.835664749145508,
        35.360836029052734
      ],
      "min": [
        -29.734148025512695,
        -0.7808610796928406,
        -1.0630590915679932
      ],
      "type": "VEC3"
    },
    {
      "bufferView": 1,
      "componentType": 5126,
      "count": 600,
      "max": [
        0.9987107515335083,
        1,
        0.9999282360076904
      ],
      "min": [
        -0.9987107515335083,
        -1,
        -0.9951171278953552
      ],
      "type": "VEC3"
    },
    {
      "bufferView": 2,
      "componentType": 5126,
      "count": 600,
      "max": [
        1,
        0.9900000095367432
      ],
      "min": [
        0,
        0
      ],
      "type": "VEC2"
    },
    {
      "bufferView": 3,
      "componentType": 5123,
      "count": 1068,
      "max": [
        599
      ],
      "min": [
        0
      ],
      "type": "SCALAR"
    },
    {
      "bufferView": 4,
      "componentType": 5126,
      "count": 3840,
      "max": [
        0.9324288964271545,
        -0.18531201779842377,
        1.745018720626831
      ],
      "min": [
        -0.9324288964271545,
        -0.9009396433830261,
        1.017822027206421
      ],
      "type": "VEC3"
    },
    {
      "bufferView": 5,
      "componentType": 5126,
      "count": 3840,
      "max": [
        0.9996874928474426,
        0.9986318945884705,
        0.98893141746521
      ],
      "min": [
        -0.9996874928474426,
        -0.9986318945884705,
        -0.9982985854148865
      ],
      "type": "VEC3"
    },
    {
      "bufferView": 6,
      "componentType": 5126,
      "count": 3840,
      "max": [
        1.0873113870620728,
        0.9900000095367432
      ],
      "min": [
        0,
        -1.1920928955078125e-7
      ],
      "type": "VEC2"
    },
    {
      "bufferView": 7,
      "componentType": 5123,
      "count": 6096,
      "max": [
        3839
      ],
      "min": [
        0
      ],
      "type": "SCALAR"
    },
    {
      "bufferView": 8,
      "componentType": 5126,
      "count": 3840,
      "max": [
        0.943943977355957,
        -0.15658532083034515,
        -0.02154362201690674
      ],
      "min": [
        -0.943943977355957,
        -0.8722129464149475,
        -0.748740553855896
      ],
      "type": "VEC3"
    },
    {
      "bufferView": 9,
      "componentType": 5126,
      "count": 3840,
      "max": [
        0.9996874928474426,
        0.9986318945884705,
        0.9889170527458191
      ],
      "min": [
        -0.9996874928474426,
        -0.9986318945884705,
        -0.9982985854148865
      ],
      "type": "VEC3"
    },
    {
      "bufferView": 10,
      "componentType": 5126,
      "count": 3840,
      "max": [
        1.0873112678527832,
        0.9900000095367432
      ],
      "min": [
        0,
        0
      ],
      "type": "VEC2"
    },
    {
      "bufferView": 11,
      "componentType": 5123,
      "count": 6096,
      "max": [
        3839
      ],
      "min": [
        0
      ],
      "type": "SCALAR"
    }
  ],
  "materials": [
    {
      "pbrMetallicRoughness": {
        "baseColorFactor": [
          0.800133466720581,
          0.0037583806551992893,
          0.004280124790966511,
          1
        ],
        "metallicFactor": 0,
        "roughnessFactor": 0.5
      },
      "doubleSided": true,
      "name": "Material"
    },
    {
      "pbrMetallicRoughness": {
        "baseColorFactor": [
          0.053537726402282715,
          0.053537726402282715,
          0.053537726402282715,
          1
        ],
        "metallicFactor": 0,
        "roughnessFactor": 0.5
      },
      "doubleSided": true,
      "name": "Material.001"
    }
  ],
  "meshes": [
    {
      "primitives": [
        {
          "mode": 4,
          "attributes": {
            "POSITION": 0,
            "NORMAL": 1,
            "TEXCOORD_0": 2
          },
          "indices": 3,
          "material": 0
        }
      ]
    },
    {
      "primitives": [
        {
          "mode": 4,
          "attributes": {
            "POSITION": 4,
            "NORMAL": 5,
            "TEXCOORD_0": 6
          },
          "indices": 7,
          "material": 1
        }
      ]
    },
    {
      "primitives": [
        {
          "mode": 4,
          "attributes": {
            "POSITION": 8,
            "NORMAL": 9,
            "TEXCOORD_0": 10
          },
          "indices": 11,
          "material": 1
        }
      ]
    }
  ],
  "cameras": [
    {
      "type": "perspective",
      "perspective": {
        "aspectRatio": 1.6991404011461317,
        "yfov": 0.39959652046304894,
        "zfar": 1000,
        "znear": 0.10000000149011612
      },
      "name": "PerspectiveCamera"
    }
  ]
}